<?xml version="1.0" encoding="UTF-8"?>
<!DOCTYPE svg PUBLIC "-//W3C//DTD SVG 1.0//EN" "http://www.w3.org/TR/2001/REC-SVG-20010904/DTD/svg10.dtd">
<!-- Creator: CorelDRAW -->
<svg xmlns="http://www.w3.org/2000/svg" xml:space="preserve" width="42.3332mm" height="15.524mm" version="1.0" style="shape-rendering:geometricPrecision; text-rendering:geometricPrecision; image-rendering:optimizeQuality; fill-rule:evenodd; clip-rule:evenodd"
viewBox="0 0 4233.32 1552.4"
 xmlns:xlink="http://www.w3.org/1999/xlink">
 <defs>
  <style type="text/css">
   <![CDATA[
    .fil0 {fill:#CBC2BC}
    .fil1 {fill:#E6D0C5}
   ]]>
  </style>
 </defs>
 <g id="Layer_x0020_1">
  <metadata id="CorelCorpID_0Corel-Layer"/>
  <g id="_105553422221888">
   <path class="fil0" d="M2715.9 1136.37c69.3,-2.27 126.69,-51.62 190.98,-53.74 29.16,64.33 39.26,119.93 63.65,188.07 -41.45,-14.27 -85.73,-36.6 -127.31,-53.73l-127.32 -80.6zm-449.97 -1133.64l326.14 0c2.43,0.99 4.81,1.99 7.12,3.03 84.59,38.16 120.43,165.06 155.67,280.53l144.02 552.93c14.32,64.22 33.49,107.21 44.36,176.26l381.97 -174.63c-26.86,54.17 -124.82,86.12 -178.45,112.53 -61.14,30.11 -126.1,68.59 -185.31,88.97 1.09,72.36 51.45,206.28 76.01,255.21l11.33 54.35c0.89,3.41 2.3,8.56 3.6,12.74 18.25,20.86 1.47,6.44 14.81,21.26 19.52,21.63 -13.1,-3.32 21.52,19.12 22.98,37.84 -7.22,18.79 27.33,53.08 101.64,83.75 222.54,8.25 281.93,40.85 33.68,-28.87 42.29,-39.43 84.04,-40.21 123.22,-11.48 406.56,-170.98 530.54,-247.45 85.62,-52.81 154.71,-101.99 220.76,-151.18l0 38.38 -201.32 141.52c-87.77,51.34 -394.8,231.79 -470.34,223.56l-54.6 35.48c-28.9,2.51 -141.32,44.54 -242.98,56.07l-87.53 0c-19.03,-3.01 -36.14,-8.54 -50.3,-17.36 -156.24,-97.3 77.15,-79.02 -346.7,-79.02 -257.26,0 -508.97,-42.75 -746.83,-146.12 -187.78,-81.61 -741.38,-328.1 -912.24,-439.13 -29.22,-18.99 -25.96,-23.53 -49.79,-35.62 -44.43,-22.53 -223.76,147.88 -276.7,186.57l-446.31 388.57c-71.21,69.47 -119.14,116.23 -176.33,142.11l-114.48 0c11.75,-14.28 23.13,-13.4 52.62,-23.81 104.08,-36.78 308.97,-242.27 420.66,-332.4 39.49,-31.87 456.65,-359.34 476.02,-398.37 -17.14,-12.15 -53.03,-33.49 -72.77,-40.3 17.59,-35.95 12.13,-23.21 53.05,1.16 61.09,36.42 65.28,25.33 127.09,-30.61l292.77 -239.21c-182.46,-62.78 -162.58,-113.56 -237.73,-69.78l-222.96 128.11c-60.91,39.98 -119.97,58.43 -130.44,116.29 32.2,3.97 67.16,24.08 81.86,53.74 -69.09,-2.28 -88.99,-75.98 -142.58,-37.39 -24.76,17.83 -34.71,33.73 -63.54,55.34 -147.66,110.68 -329.37,295.8 -464.21,442.72l-226.72 216.55 0 -56.56c1.75,-0.92 3.6,-1.94 5.57,-3.09 79.63,-46.55 461.49,-474.79 636.83,-604.14 18.52,-13.67 36.05,-26.53 54.71,-40.87l45.34 -26.36c28.85,-25 13.48,-14.29 38.85,-40.22 27.3,-25.47 59.9,-47.45 89.73,-65.29 50.57,-30.23 244.05,-173.48 280.65,-174.4 22.93,-28.49 -0.67,-4.47 27.34,-28.98 47.8,-1.12 203.74,-73.46 293.24,-90.68 49.08,-9.44 128.68,-4.58 163.96,6.37 71.89,22.29 76.93,24.61 139.2,-15.28 156.67,-100.39 312.54,-198.01 490.52,-254.94zm-213.92 851.56l0 0zm-982.19 -53.74l327.46 -242.08c79.84,-61.31 40.21,-26.16 172.74,27.15 70.09,28.21 401.58,186.62 430.93,263.5 65.74,172.2 121.93,298.7 259.81,355.04 182.28,74.47 330.6,-40.93 382.37,-40.93l314.71 139.68c31.74,18.21 50.56,67.38 58.17,115.56 -575.13,0 -716.76,-4.97 -1285.71,-277.07 -172.1,-82.31 -284.58,-115.85 -448.57,-210.56 -38.36,-22.17 -68.24,-34.48 -106.76,-57.23l-75.3 -49.98c-2.52,-1.79 -9.95,-6.94 -12.3,-8.71l-17.55 -14.37zm600.23 -429.85c103.01,0 268.74,266.29 291.02,389.55l-472.91 -255.23c21.39,-43.09 178.64,-134.32 181.89,-134.32zm-227.34 107.46l-142.63 -71.46c-40.31,-22.47 -17.62,7.65 -39.28,-36 61.92,-7.61 212.54,-95.47 372.87,-40.3 -16.77,37.01 -9.63,27.1 -39.83,48.61l-151.13 99.15zm609.3 376.13c75.72,26.05 216.51,118.44 291.02,120.89 -17.5,-35.28 -53.76,-42.65 -87.43,-58.95 -34.86,-16.88 -68.72,-31.54 -96.78,-45.07 -139.58,-67.41 -129.33,-64.83 -161.8,-150.59l-101.71 -225.87c-57.56,-91.63 -116.68,-118.74 -143.41,-177.73l261 -165.25c164.4,-95.55 363.34,-151.88 537.09,-100.15 121.29,36.12 152.19,246.47 208.27,431.17 28.31,93.21 44.3,174.95 70.57,271.93 26.44,97.66 59.86,157.57 59.86,287.68 -70.49,8.65 -185.58,109.48 -280.14,64.7 -55.76,-26.41 -206.77,-125.77 -256.43,-131.87l187.76 125.67c35.32,17.74 39.02,11.12 57.8,48.95 -142.88,0 -306.91,119.06 -466.27,-117.26 -27.08,-40.17 -70.13,-119.51 -79.4,-178.25z"/>
   <path class="fil1" d="M4070.95 478.16l0 0zm162.37 -228.13l0 64.24c-10.59,14.2 -19.46,28.65 -25.96,42.99l25.96 0 0 24.91c-30.74,26.49 -77.93,32.82 -109.55,93.39 -16.43,31.46 -22.82,55.8 -41.51,86.44l-190.81 322.65c-23.67,38.01 -30.78,29.23 -53.21,69.19 -50.8,90.59 -159.41,208.75 -230.97,263.33 -106.76,81.4 -158.15,131.79 -282.06,174.42 26.94,59.4 20.65,31.82 76.24,48.7 37.79,11.47 36.71,18.46 80.57,18.46 -41.75,0.78 -50.36,11.34 -84.04,40.21 -20.02,-37.39 -25.37,-30.93 -69.01,-46.01 -80.03,-27.65 -74.68,-32.27 -150.14,-23.26 -42.08,5.02 -46.56,-12.81 -62.78,28.42 -34.55,-34.29 -4.35,-15.24 -27.33,-53.08 13.63,-22.53 16.13,-13.44 45.52,-13.44 -17.86,-36.01 -44.07,-48.48 -81.85,-26.94 -1.3,-4.18 -2.71,-9.33 -3.6,-12.74l-11.33 -54.35c216.88,90.04 252.99,98.92 490.9,-76.05 30.02,-22.09 45.75,-36.82 70.15,-57.58 51.86,-44.09 139.84,-127.31 177.7,-194.25 90.17,-159.45 230.35,-311.8 294.74,-491.52 -37.18,4.56 -324.27,161.64 -367.08,183.16 -67.46,33.91 -120.89,62.02 -179.88,97.01 -46.15,27.4 -132.2,82.52 -189.67,82.52 9.72,-12.48 2.88,-7.17 21.18,-22.44l347.84 -184.72c124.2,-71.04 246,-130.77 369,-193.75 36.67,-18.79 39.03,-21.4 60.96,-57.76l81.01 -108.69c5.57,-7.4 11.97,-15.31 19.01,-23.46zm-25.96 107.23l0 0z"/>
   <path class="fil1" d="M4233.32 1473.44c-185.74,86.05 -384.92,45.65 -579.94,24.56 -42.19,-4.57 -75.19,-9.01 -91.72,-34.42l-54.6 35.48c12.25,31.13 126.15,47.23 234.77,56.07l434.96 0c18.84,-6.05 37.5,-13.63 56.53,-22.85l0 -58.84z"/>
   <path class="fil1" d="M1151.67 386.24c22.93,-28.49 -0.67,-4.47 27.34,-28.98 -7.32,-21.73 -33.06,-28.03 -55.53,-38.66 -27.41,-12.98 -46.43,-22.57 -75.26,-36.89l-470.25 -191.99c-81.21,-24.95 -183.93,-63.43 -288.41,-86.99l-289.57 0 0 59.39c168.64,-73.49 382.34,12.46 567.4,70.12 112.89,35.18 340.97,114.63 445.11,175.38 25.88,15.08 40.95,19.91 69.65,31.41 37.8,15.17 53.03,10.42 69.52,47.21z"/>
   <path class="fil1" d="M742.44 666.15c28.85,-25 13.48,-14.29 38.85,-40.22 -195.85,-59.62 -519.92,-385.27 -756.32,-347.8 -9.25,1.46 -17.53,2.97 -24.98,4.57l0 54.19c46.73,-11.42 89.71,-14.03 149.92,-4.62 97.5,15.22 297.65,131.12 389.88,189.95 37.39,23.86 158.17,99.36 193.55,103.71 5.72,10.12 7.37,32.69 9.1,40.22z"/>
  </g>
 </g>
</svg>
